HIERARCHY
ROOT hip
{
  OFFSET 0 0 0
  CHANNELS 6 Xposition Yposition Zposition Zrotation Yrotation Xrotation
  JOINT abdomen
  {
    OFFSET 0 20.6881 -0.73152
    CHANNELS 3 Zrotation Xrotation Yrotation
    JOINT chest
    {
      OFFSET 0 11.7043 -0.48768
      CHANNELS 3 Zrotation Xrotation Yrotation
      JOINT neck
      {
        OFFSET 0 22.1894 -2.19456
        CHANNELS 3 Zrotation Xrotation Yrotation
        JOINT head
        {
          OFFSET -0.24384 7.07133 1.2192
          CHANNELS 3 Zrotation Xrotation Yrotation
          JOINT leftEye
          {
            OFFSET 4.14528 8.04674 8.04672
            CHANNELS 3 Zrotation Xrotation Yrotation
            End Site
            {
              OFFSET 1 0 0
            }
          }
          JOINT rightEye
          {
            OFFSET -3.6576 8.04674 8.04672
            CHANNELS 3 Zrotation Xrotation Yrotation
            End Site
            {
              OFFSET 1 0 0
            }
          }
        }
      }
      JOINT rCollar
      {
        OFFSET -2.68224 19.2634 -4.8768
        CHANNELS 3 Zrotation Xrotation Yrotation
        JOINT rShldr
        {
          OFFSET -8.77824 -1.95073 1.46304
          CHANNELS 3 Zrotation Xrotation Yrotation
          JOINT rForeArm
          {
            OFFSET -28.1742 -1.7115 0.48768
            CHANNELS 3 Zrotation Xrotation Yrotation
            JOINT rHand
            {
              OFFSET -22.5879 0.773209 7.07136
              CHANNELS 3 Zrotation Xrotation Yrotation
              JOINT rThumb1
              {
                OFFSET -1.2192 -0.487915 3.41376
                CHANNELS 3 Zrotation Xrotation Yrotation
                JOINT rThumb2
                {
                  OFFSET -3.37035 -0.52449 3.41376
                  CHANNELS 3 Zrotation Xrotation Yrotation
                  End Site
                  {
                    OFFSET -1.78271 -1.18214 1.43049
                  }
                }
              }
              JOINT rIndex1
              {
                OFFSET -7.75947 0.938293 5.60832
                CHANNELS 3 Zrotation Xrotation Yrotation
                JOINT rIndex2
                {
                  OFFSET -2.54057 -0.884171 1.56538
                  CHANNELS 3 Zrotation Xrotation Yrotation
                  End Site
                  {
                    OFFSET -1.62519 -0.234802 1.16502
                  }
                }
              }
              JOINT rMid1
              {
                OFFSET -8.24714 1.18213 3.41376
                CHANNELS 3 Zrotation Xrotation Yrotation
                JOINT rMid2
                {
                  OFFSET -3.10165 -0.590103 1.0647
                  CHANNELS 3 Zrotation Xrotation Yrotation
                  End Site
                  {
                    OFFSET -2.48547 -0.328903 0.83742
                  }
                }
              }
              JOINT rRing1
              {
                OFFSET -8.82822 0.546677 1.51678
                CHANNELS 3 Zrotation Xrotation Yrotation
                JOINT rRing2
                {
                  OFFSET -2.60934 -0.819778 -0.0198488
                  CHANNELS 3 Zrotation Xrotation Yrotation
                  End Site
                  {
                    OFFSET -2.33842 -0.294052 0.168128
                  }
                }
              }
              JOINT rPinky1
              {
                OFFSET -8.27202 -0.0477905 -0.4584
                CHANNELS 3 Zrotation Xrotation Yrotation
                JOINT rPinky2
                {
                  OFFSET -1.82734 -0.647385 -0.700984
                  CHANNELS 3 Zrotation Xrotation Yrotation
                  End Site
                  {
                    OFFSET -1.69225 -0.51767 -0.607171
                  }
                }
              }
            }
          }
        }
      }
      JOINT lCollar
      {
        OFFSET 2.68224 19.2634 -4.8768
        CHANNELS 3 Zrotation Xrotation Yrotation
        JOINT lShldr
        {
          OFFSET 8.77824 -1.95073 1.46304
          CHANNELS 3 Zrotation Xrotation Yrotation
          JOINT lForeArm
          {
            OFFSET 28.1742 -1.7115 0.48768
            CHANNELS 3 Zrotation Xrotation Yrotation
            JOINT lHand
            {
              OFFSET 22.5879 0.773209 7.07136
              CHANNELS 3 Zrotation Xrotation Yrotation
              JOINT lThumb1
              {
                OFFSET 1.2192 -0.487915 3.41376
                CHANNELS 3 Zrotation Xrotation Yrotation
                JOINT lThumb2
                {
                  OFFSET 3.37035 -0.52449 3.41376
                  CHANNELS 3 Zrotation Xrotation Yrotation
                  End Site
                  {
                    OFFSET 1.78271 -1.18214 1.43049
                  }
                }
              }
              JOINT lIndex1
              {
                OFFSET 7.75947 0.938293 5.60832
                CHANNELS 3 Zrotation Xrotation Yrotation
                JOINT lIndex2
                {
                  OFFSET 2.54057 -0.884171 1.56538
                  CHANNELS 3 Zrotation Xrotation Yrotation
                  End Site
                  {
                    OFFSET 1.62519 -0.234802 1.16502
                  }
                }
              }
              JOINT lMid1
              {
                OFFSET 8.24714 1.18213 3.41376
                CHANNELS 3 Zrotation Xrotation Yrotation
                JOINT lMid2
                {
                  OFFSET 3.10165 -0.590103 1.0647
                  CHANNELS 3 Zrotation Xrotation Yrotation
                  End Site
                  {
                    OFFSET 2.48547 -0.328903 0.83742
                  }
                }
              }
              JOINT lRing1
              {
                OFFSET 8.82822 0.546677 1.51678
                CHANNELS 3 Zrotation Xrotation Yrotation
                JOINT lRing2
                {
                  OFFSET 2.60934 -0.819778 -0.0198488
                  CHANNELS 3 Zrotation Xrotation Yrotation
                  End Site
                  {
                    OFFSET 2.33842 -0.294052 0.168128
                  }
                }
              }
              JOINT lPinky1
              {
                OFFSET 8.27202 -0.0477905 -0.4584
                CHANNELS 3 Zrotation Xrotation Yrotation
                JOINT lPinky2
                {
                  OFFSET 1.82734 -0.647385 -0.700984
                  CHANNELS 3 Zrotation Xrotation Yrotation
                  End Site
                  {
                    OFFSET 1.69225 -0.51767 -0.607171
                  }
                }
              }
            }
          }
        }
      }
    }
  }
  JOINT rButtock
  {
    OFFSET -8.77824 4.35084 1.2192
    CHANNELS 3 Zrotation Xrotation Yrotation
    JOINT rThigh
    {
      OFFSET 0 -1.70687 -2.19456
      CHANNELS 3 Zrotation Xrotation Yrotation
      JOINT rShin
      {
        OFFSET 0 -36.8199 0.73152
        CHANNELS 3 Zrotation Xrotation Yrotation
        JOINT rFoot
        {
          OFFSET 0.73152 -45.1104 -5.12064
          CHANNELS 3 Zrotation Xrotation Yrotation
          End Site
          {
            OFFSET -1.1221 -3.69964 12.103
          }
        }
      }
    }
  }
  JOINT lButtock
  {
    OFFSET 8.77824 4.35084 1.2192
    CHANNELS 3 Zrotation Xrotation Yrotation
    JOINT lThigh
    {
      OFFSET 0 -1.70687 -2.19456
      CHANNELS 3 Zrotation Xrotation Yrotation
      JOINT lShin
      {
        OFFSET 0 -36.8199 0.73152
        CHANNELS 3 Zrotation Xrotation Yrotation
        JOINT lFoot
        {
          OFFSET -0.73152 -45.1104 -5.12064
          CHANNELS 3 Zrotation Xrotation Yrotation
          End Site
          {
            OFFSET 1.1221 -3.69964 12.103
          }
        }
      }
    }
  }
}
MOTION
Frames:	9
Frame Time:	0.00833333
-4.30891 82.6931 47.1854 -6.692 -3.0235 7.6015 1.77555 -7.48985 2.49251 -5.02872 -11.9057 -0.117667 -1.8313 5.72247 -3.56579 11.0856 -0.638528 -6.68135 -0.0 0.0 0.0 -0.0 0.0 0.0 -1.57552e-13 1.59102e-14 3.27498e-14 39.6739 54.9879 13.6056 -17.9786 -54.7571 118.922 -0.72137 23.3863 3.48444 -5.99229e-10 -4.9888e-10 2.40755e-10 -1.03672e-09 -8.57761e-10 4.28224e-10 -5.99225e-10 -4.98877e-10 2.40746e-10 7.73091 5.47488 0.417314 -5.99233e-10 -4.98875e-10 2.40762e-10 2.90554 0.965183 0.102902 -5.99222e-10 -4.98876e-10 2.40751e-10 10.2786 0.731801 0.0259123 -5.99236e-10 -4.98874e-10 2.40765e-10 2.22167 -0.733487 -0.20892 -1.57532e-13 1.58964e-14 3.24516e-14 -7.64003 57.5405 -29.9017 17.0329 -55.3277 -121.009 0.0510481 6.43439 -0.908154 5.8621e-10 -5.23141e-10 2.57246e-10 1.01186e-09 -9.04359e-10 4.39896e-10 5.86205e-10 -5.23143e-10 2.57253e-10 -7.73091 5.47488 -0.417314 5.86212e-10 -5.23144e-10 2.57243e-10 -2.90554 0.965183 -0.102902 5.862e-10 -5.23143e-10 2.57244e-10 -10.2786 0.731801 -0.0259123 5.86209e-10 -5.23144e-10 2.57243e-10 -2.22167 -0.733487 0.20892 -2.03217e-16 0.0 -3.88251e-19 2.53253 -2.95307 23.1669 0.0243642 -0.891886 0.312684 -4.7409 -6.25305 -20.8934 2.03217e-16 0.0 3.88251e-19 1.55219 -5.269 36.4119 -0.00639395 12.6537 0.158122 9.64962 -12.6728 45.9918
-4.30361 82.695 47.0522 -6.7231 -2.8365 7.506 1.69144 -7.21322 2.363 -5.00312 -11.8619 -0.144021 -1.7637 5.98647 -3.55376 11.0639 -1.34354 -6.60585 -0.0 0.0 0.0 -0.0 0.0 0.0 -9.01619e-14 -3.78883e-14 2.00373e-14 33.4854 56.0422 21.8377 -19.5868 -53.7023 115.216 -0.739403 23.65 3.52876 -4.57616e-10 -3.69275e-10 3.95612e-11 -7.93886e-10 -6.35457e-10 7.75263e-11 -4.57611e-10 -3.69274e-10 3.95505e-11 7.73091 5.47488 0.417314 -4.57619e-10 -3.69272e-10 3.95664e-11 2.90554 0.965183 0.102902 -4.5761e-10 -3.69274e-10 3.95577e-11 10.2786 0.731801 0.0259123 -4.57623e-10 -3.69271e-10 3.95698e-11 2.22167 -0.733487 -0.20892 -9.01874e-14 -3.78979e-14 1.97127e-14 -0.0460185 56.9127 -39.6379 18.1549 -54.6563 -118.524 0.054081 6.57774 -0.928667 4.99842e-10 -2.29248e-10 2.62395e-10 8.63726e-10 -3.9605e-10 4.49823e-10 4.99838e-10 -2.2925e-10 2.62402e-10 -7.73091 5.47488 -0.417314 4.99844e-10 -2.29251e-10 2.62391e-10 -2.90554 0.965183 -0.102902 4.99832e-10 -2.29251e-10 2.62393e-10 -10.2786 0.731801 -0.0259123 4.99842e-10 -2.29251e-10 2.62392e-10 -2.22167 -0.733487 0.20892 -2.03217e-16 0.0 -3.88251e-19 2.57266 -2.95999 23.1231 0.0242388 -0.888415 0.308809 -4.74332 -6.1896 -21.0035 2.03217e-16 0.0 3.88251e-19 1.51545 -5.29323 36.5331 -0.00543272 12.6324 0.161455 9.46344 -12.4949 45.92
-4.29982 82.6974 46.9166 -6.7711 -2.6778 7.4481 1.63435 -6.93091 2.21457 -4.97945 -11.8401 -0.177405 -1.69417 6.21137 -3.54648 11.0226 -2.00327 -6.54299 -0.0 0.0 0.0 -0.0 0.0 0.0 4.06833e-14 -9.68082e-14 3.23336e-15 27.1158 56.1697 30.2174 -21.1821 -52.3584 111.293 -0.752767 23.8448 3.56158 -1.62804e-10 -1.31314e-10 -3.14657e-10 -2.87548e-10 -2.27508e-10 -5.40394e-10 -1.62802e-10 -1.31314e-10 -3.14669e-10 7.73091 5.47488 0.417314 -1.62808e-10 -1.31314e-10 -3.14654e-10 2.90554 0.965183 0.102902 -1.628e-10 -1.31315e-10 -3.1466e-10 10.2786 0.731801 0.0259123 -1.62812e-10 -1.31311e-10 -3.1465e-10 2.22167 -0.733487 -0.20892 4.05788e-14 -9.68084e-14 2.88548e-15 6.60166 55.256 -48.5349 19.2543 -53.9093 -115.997 0.0557689 6.62322 -0.935288 2.95548e-10 2.13493e-10 2.59041e-10 5.1257e-10 3.69489e-10 4.45809e-10 2.95546e-10 2.13492e-10 2.59049e-10 -7.73091 5.47488 -0.417314 2.95548e-10 2.13492e-10 2.59037e-10 -2.90554 0.965183 -0.102902 2.95539e-10 2.13491e-10 2.5904e-10 -10.2786 0.731801 -0.0259123 2.95549e-10 2.1349e-10 2.59038e-10 -2.22167 -0.733487 0.20892 -2.03217e-16 0.0 -3.88251e-19 2.6352 -2.99221 23.0905 0.0243258 -0.880878 0.305083 -4.7415 -6.10512 -21.1243 2.03217e-16 0.0 3.88251e-19 1.46936 -5.3252 36.7041 -0.00437306 12.6058 0.163018 9.29694 -12.3203 45.9071
-4.29356 82.7039 46.7807 -6.814 -2.566 7.4283 1.6044 -6.6424 2.10125 -4.97476 -11.8343 -0.203639 -1.63433 6.3847 -3.54712 10.9623 -2.63441 -6.49644 -0.0 0.0 0.0 -0.0 0.0 0.0 1.75449e-13 -1.46683e-13 -7.89431e-15 21.1813 55.513 38.1371 -22.6813 -50.8557 107.241 -0.757981 23.9231 3.57472 1.1612e-10 9.27663e-11 -6.36051e-10 1.91829e-10 1.56808e-10 -1.10128e-09 1.16121e-10 9.27646e-11 -6.36064e-10 7.73091 5.47488 0.417314 1.16116e-10 9.27646e-11 -6.3605e-10 2.90554 0.965183 0.102902 1.16122e-10 9.27636e-11 -6.36052e-10 10.2786 0.731801 0.0259123 1.16113e-10 9.27673e-11 -6.36047e-10 2.22167 -0.733487 -0.20892 1.75274e-13 -1.46674e-13 -8.25306e-15 11.7813 52.8486 -55.9956 20.299 -53.1135 -113.487 0.0580508 6.75865 -0.954598 8.40526e-11 6.53143e-10 2.65559e-10 1.49098e-10 1.12961e-09 4.58748e-10 8.40522e-11 6.53142e-10 2.65568e-10 -7.73091 5.47488 -0.417314 8.40529e-11 6.53142e-10 2.65556e-10 -2.90554 0.965183 -0.102902 8.4046e-11 6.53141e-10 2.65559e-10 -10.2786 0.731801 -0.0259123 8.40557e-11 6.5314e-10 2.65554e-10 -2.22167 -0.733487 0.20892 -2.03217e-16 0.0 -3.88251e-19 2.69794 -3.05416 23.0826 0.0244238 -0.873741 0.301286 -4.73225 -6.00788 -21.2356 2.03217e-16 0.0 3.88251e-19 1.42626 -5.378 36.8716 -0.00333037 12.5815 0.164284 9.16435 -12.1719 45.9295
-4.27449 82.715 46.6438 -6.8473 -2.5136 7.4454 1.60062 -6.34725 2.07694 -5.00613 -11.8389 -0.20854 -1.59579 6.49396 -3.55886 10.8834 -3.25361 -6.46998 -0.0 0.0 0.0 -0.0 0.0 0.0 2.546e-13 -1.73347e-13 -3.57812e-15 16.1025 54.3036 45.1796 -24.0599 -49.3194 103.095 -0.751674 23.8374 3.5601 2.10074e-10 1.80729e-10 -7.38773e-10 3.53785e-10 3.08212e-10 -1.28086e-09 2.10073e-10 1.80727e-10 -7.38786e-10 7.73091 5.47488 0.417314 2.1007e-10 1.80726e-10 -7.38773e-10 2.90554 0.965183 0.102902 2.10075e-10 1.80725e-10 -7.38773e-10 10.2786 0.731801 0.0259123 2.10067e-10 1.80729e-10 -7.3877e-10 2.22167 -0.733487 -0.20892 2.54405e-13 -1.73335e-13 -3.926e-15 15.3833 50.0445 -61.8468 21.2683 -52.3008 -111.039 0.0635022 7.17184 -1.01329 -2.39169e-11 9.37758e-10 3.00324e-10 -3.59836e-11 1.62168e-09 5.19531e-10 -2.39166e-11 9.37757e-10 3.00333e-10 -7.73091 5.47488 -0.417314 -2.39166e-11 9.37758e-10 3.00321e-10 -2.90554 0.965183 -0.102902 -2.39221e-11 9.37757e-10 3.00324e-10 -10.2786 0.731801 -0.0259123 -2.39124e-11 9.37756e-10 3.00318e-10 -2.22167 -0.733487 0.20892 -2.03217e-16 0.0 -3.88251e-19 2.73883 -3.15021 23.1125 0.0243303 -0.87147 0.297195 -4.71259 -5.90611 -21.3172 2.03217e-16 0.0 3.88251e-19 1.39824 -5.46482 36.9822 -0.0024284 12.5671 0.166776 9.08019 -12.072 45.9635
-4.25129 82.727 46.5029 -6.8659 -2.5285 7.4935 1.62225 -6.05606 2.16016 -5.07734 -11.8465 -0.1868 -1.5937 6.53124 -3.59025 10.781 -3.8602 -6.47769 -0.0 0.0 0.0 -0.0 0.0 0.0 2.55906e-13 -1.74698e-13 3.09227e-14 12.0786 52.6632 51.1883 -25.3321 -47.6288 98.81 -0.728643 23.5056 3.50412 -4.14901e-11 3.29646e-11 -4.62276e-10 -7.71882e-11 5.69373e-11 -7.98813e-10 -4.14918e-11 3.29639e-11 -4.62289e-10 7.73091 5.47488 0.417314 -4.14935e-11 3.29624e-11 -4.62276e-10 2.90554 0.965183 0.102902 -4.14879e-11 3.29615e-11 -4.62275e-10 10.2786 0.731801 0.0259123 -4.14956e-11 3.29643e-11 -4.62273e-10 2.22167 -0.733487 -0.20892 2.55776e-13 -1.74692e-13 3.06299e-14 17.4652 47.0561 -66.2701 22.1764 -51.463 -108.625 0.0768179 8.02658 -1.13513 6.15936e-11 1.03613e-09 3.94388e-10 1.127e-10 1.79166e-09 6.80708e-10 6.15938e-11 1.03613e-09 3.94397e-10 -7.73091 5.47488 -0.417314 6.15949e-11 1.03613e-09 3.94386e-10 -2.90554 0.965183 -0.102902 6.159e-11 1.03613e-09 3.94388e-10 -10.2786 0.731801 -0.0259123 6.15989e-11 1.03613e-09 3.94379e-10 -2.22167 -0.733487 0.20892 -2.03217e-16 0.0 -3.88251e-19 2.75063 -3.2827 23.1901 0.0239358 -0.876388 0.292645 -4.68371 -5.80397 -21.3706 2.03217e-16 0.0 3.88251e-19 1.38672 -5.59869 37.0022 -0.0017735 12.5675 0.171404 9.0511 -12.0342 45.9828
-4.2247 82.7384 46.3558 -6.8715 -2.6161 7.5682 1.66794 -5.76555 2.32056 -5.17953 -11.8623 -0.146491 -1.61789 6.50471 -3.63699 10.6551 -4.44682 -6.51314 -0.0 0.0 0.0 -0.0 0.0 0.0 2.13236e-13 -1.57733e-13 8.63533e-14 9.07357 50.6781 56.2378 -26.4029 -45.6629 94.5511 -0.693471 22.976 3.41569 -5.09908e-10 -2.62996e-10 5.73251e-11 -8.80162e-10 -4.47414e-10 1.07308e-10 -5.0991e-10 -2.62994e-10 5.7312e-11 7.73091 5.47488 0.417314 -5.09911e-10 -2.62996e-10 5.73265e-11 2.90554 0.965183 0.102902 -5.09903e-10 -2.62997e-10 5.73258e-11 10.2786 0.731801 0.0259123 -5.0991e-10 -2.62996e-10 5.73277e-11 2.22167 -0.733487 -0.20892 2.13227e-13 -1.57738e-13 8.61483e-14 18.3346 43.9775 -69.6414 23.0235 -50.5811 -106.244 0.10039 9.18465 -1.30142 2.61388e-10 1.0262e-09 5.29234e-10 4.58599e-10 1.7743e-09 9.11032e-10 2.61387e-10 1.0262e-09 5.29242e-10 -7.73091 5.47488 -0.417314 2.61391e-10 1.0262e-09 5.29233e-10 -2.90554 0.965183 -0.102902 2.61386e-10 1.0262e-09 5.29233e-10 -10.2786 0.731801 -0.0259123 2.61394e-10 1.02621e-09 5.29223e-10 -2.22167 -0.733487 0.20892 -2.03217e-16 0.0 -3.88251e-19 2.74612 -3.44865 23.3062 0.023365 -0.885737 0.287789 -4.64669 -5.69637 -21.4043 2.03217e-16 0.0 3.88251e-19 1.38543 -5.76971 36.9667 -0.00128292 12.5778 0.177211 9.06837 -12.0439 46.0066
-4.19934 82.7477 46.202 -6.8749 -2.7805 7.6703 1.73506 -5.45446 2.53866 -5.31075 -11.8985 -0.093487 -1.642 6.42608 -3.68303 10.5142 -5.02025 -6.54941 -0.0 0.0 0.0 -0.0 0.0 0.0 1.51208e-13 -1.21933e-13 1.36488e-13 6.89274 48.5268 60.5022 -27.2007 -43.5779 90.5184 -0.656898 22.3969 3.32005 -9.30447e-10 -5.4868e-10 5.60888e-10 -1.60094e-09 -9.35069e-10 9.84918e-10 -9.30449e-10 -5.48676e-10 5.60875e-10 7.73091 5.47488 0.417314 -9.30449e-10 -5.48679e-10 5.60891e-10 2.90554 0.965183 0.102902 -9.3044e-10 -5.4868e-10 5.60889e-10 10.2786 0.731801 0.0259123 -9.30447e-10 -5.4868e-10 5.60891e-10 2.22167 -0.733487 -0.20892 1.51319e-13 -1.2195e-13 1.36362e-13 18.4484 40.9441 -72.2625 23.7859 -49.6804 -103.961 0.131301 10.3809 -1.47482 4.32465e-10 9.19726e-10 6.48882e-10 7.54531e-10 1.59009e-09 1.1157e-09 4.32463e-10 9.19726e-10 6.48888e-10 -7.73091 5.47488 -0.417314 4.3247e-10 9.19728e-10 6.48881e-10 -2.90554 0.965183 -0.102902 4.32465e-10 9.19729e-10 6.48879e-10 -10.2786 0.731801 -0.0259123 4.32471e-10 9.19732e-10 6.48867e-10 -2.22167 -0.733487 0.20892 -2.03217e-16 0.0 -3.88251e-19 2.73328 -3.64448 23.4463 0.022767 -0.896357 0.282887 -4.59854 -5.57761 -21.4089 2.03217e-16 0.0 3.88251e-19 1.39521 -5.95673 36.9257 -0.000745923 12.5905 0.182833 9.12385 -12.0814 46.0786
-4.17612 82.7549 46.0421 -6.8851 -3.0192 7.7997 1.821 -5.10158 2.79506 -5.46897 -11.9674 -0.0336504 -1.63961 6.30705 -3.7123 10.3683 -5.58739 -6.55953 -0.0 0.0 0.0 -0.0 0.0 0.0 9.44391e-14 -6.678e-14 1.55102e-13 5.30563 46.3431 64.1756 -27.7509 -41.5662 86.777 -0.627768 21.9162 3.24141 -1.03838e-09 -6.65617e-10 7.89271e-10 -1.78532e-09 -1.13626e-09 1.38143e-09 -1.03838e-09 -6.65612e-10 7.89258e-10 7.73091 5.47488 0.417314 -1.03838e-09 -6.65615e-10 7.89274e-10 2.90554 0.965183 0.102902 -1.03837e-09 -6.65616e-10 7.89271e-10 10.2786 0.731801 0.0259123 -1.03837e-09 -6.65617e-10 7.89274e-10 2.22167 -0.733487 -0.20892 9.46115e-14 -6.68017e-14 1.55002e-13 18.2123 38.0454 -74.3667 24.4513 -48.7939 -101.824 0.160661 11.3503 -1.6166 4.31825e-10 7.28468e-10 6.97349e-10 7.53313e-10 1.25953e-09 1.19992e-09 4.31821e-10 7.28467e-10 6.97356e-10 -7.73091 5.47488 -0.417314 4.3183e-10 7.2847e-10 6.97349e-10 -2.90554 0.965183 -0.102902 4.31824e-10 7.2847e-10 6.97346e-10 -10.2786 0.731801 -0.0259123 4.3183e-10 7.28475e-10 6.97333e-10 -2.22167 -0.733487 0.20892 -2.03217e-16 0.0 -3.88251e-19 2.71992 -3.86666 23.5958 0.022292 -0.905089 0.278197 -4.5364 -5.44192 -21.3748 2.03217e-16 0.0 3.88251e-19 1.41749 -6.13815 36.9286 5.04844e-05 12.5979 0.186981 9.2095 -12.1265 46.2428
